# Wavefront OBJ file automatically generated by Tiled2Unity

# Vertices (Count = 234)
v -768 -256 0
v -800 -256 0
v -800 -224 0
v -768 -224 0
v -736 -256 0
v -736 -224 0
v -704 -256 0
v -704 -224 0
v -672 -256 0
v -672 -224 0
v -640 -256 0
v -640 -224 0
v -608 -256 0
v -608 -224 0
v -576 -256 0
v -576 -224 0
v -544 -256 0
v -544 -224 0
v -512 -256 0
v -512 -224 0
v -480 -256 0
v -480 -224 0
v -448 -256 0
v -448 -224 0
v -416 -256 0
v -416 -224 0
v -384 -256 0
v -384 -224 0
v -352 -256 0
v -352 -224 0
v -320 -256 0
v -320 -224 0
v -288 -256 0
v -288 -224 0
v -256 -256 0
v -256 -224 0
v -224 -256 0
v -224 -224 0
v -192 -256 0
v -192 -224 0
v -160 -256 0
v -160 -224 0
v -128 -256 0
v -128 -224 0
v -96 -256 0
v -96 -224 0
v -64 -256 0
v -64 -224 0
v -32 -256 0
v -32 -224 0
v 0 -256 0
v 0 -224 0
v -800 -192 0
v -768 -192 0
v -736 -192 0
v -704 -192 0
v -672 -192 0
v -640 -192 0
v -608 -192 0
v -576 -192 0
v -544 -192 0
v -512 -192 0
v -480 -192 0
v -448 -192 0
v -416 -192 0
v -384 -192 0
v -352 -192 0
v -320 -192 0
v -288 -192 0
v -256 -192 0
v -224 -192 0
v -192 -192 0
v -160 -192 0
v -128 -192 0
v -96 -192 0
v -64 -192 0
v -32 -192 0
v 0 -192 0
v -800 -160 0
v -768 -160 0
v -736 -160 0
v -704 -160 0
v -672 -160 0
v -640 -160 0
v -608 -160 0
v -576 -160 0
v -544 -160 0
v -512 -160 0
v -480 -160 0
v -448 -160 0
v -416 -160 0
v -384 -160 0
v -352 -160 0
v -320 -160 0
v -288 -160 0
v -256 -160 0
v -224 -160 0
v -192 -160 0
v -160 -160 0
v -128 -160 0
v -96 -160 0
v -64 -160 0
v -32 -160 0
v 0 -160 0
v -800 -128 0
v -768 -128 0
v -736 -128 0
v -704 -128 0
v -672 -128 0
v -640 -128 0
v -608 -128 0
v -576 -128 0
v -544 -128 0
v -512 -128 0
v -480 -128 0
v -448 -128 0
v -416 -128 0
v -384 -128 0
v -352 -128 0
v -320 -128 0
v -288 -128 0
v -256 -128 0
v -224 -128 0
v -192 -128 0
v -160 -128 0
v -128 -128 0
v -96 -128 0
v -64 -128 0
v -32 -128 0
v 0 -128 0
v -800 -96 0
v -768 -96 0
v -736 -96 0
v -704 -96 0
v -672 -96 0
v -640 -96 0
v -608 -96 0
v -576 -96 0
v -544 -96 0
v -512 -96 0
v -480 -96 0
v -448 -96 0
v -416 -96 0
v -384 -96 0
v -352 -96 0
v -320 -96 0
v -288 -96 0
v -256 -96 0
v -224 -96 0
v -192 -96 0
v -160 -96 0
v -128 -96 0
v -96 -96 0
v -64 -96 0
v -32 -96 0
v 0 -96 0
v -800 -64 0
v -768 -64 0
v -736 -64 0
v -704 -64 0
v -672 -64 0
v -640 -64 0
v -608 -64 0
v -576 -64 0
v -544 -64 0
v -512 -64 0
v -480 -64 0
v -448 -64 0
v -416 -64 0
v -384 -64 0
v -352 -64 0
v -320 -64 0
v -288 -64 0
v -256 -64 0
v -224 -64 0
v -192 -64 0
v -160 -64 0
v -128 -64 0
v -96 -64 0
v -64 -64 0
v -32 -64 0
v 0 -64 0
v -800 -32 0
v -768 -32 0
v -736 -32 0
v -704 -32 0
v -672 -32 0
v -640 -32 0
v -608 -32 0
v -576 -32 0
v -544 -32 0
v -512 -32 0
v -480 -32 0
v -448 -32 0
v -416 -32 0
v -384 -32 0
v -352 -32 0
v -320 -32 0
v -288 -32 0
v -256 -32 0
v -224 -32 0
v -192 -32 0
v -160 -32 0
v -128 -32 0
v -96 -32 0
v -64 -32 0
v -32 -32 0
v 0 -32 0
v -800 0 0
v -768 0 0
v -736 0 0
v -704 0 0
v -672 0 0
v -640 0 0
v -608 0 0
v -576 0 0
v -544 0 0
v -512 0 0
v -480 0 0
v -448 0 0
v -416 0 0
v -384 0 0
v -352 0 0
v -320 0 0
v -288 0 0
v -256 0 0
v -224 0 0
v -192 0 0
v -160 0 0
v -128 0 0
v -96 0 0
v -64 0 0
v -32 0 0
v 0 0 0

# Texture Coorindates (Count = 104)
vt 0.3001221 0.900122
vt 0.3998779 0.900122
vt 0.3998779 0.9998779
vt 0.3001221 0.9998779
vt 0.2001221 0.900122
vt 0.2998779 0.900122
vt 0.2998779 0.9998779
vt 0.2001221 0.9998779
vt 0.3001221 0.8001221
vt 0.3998779 0.8001221
vt 0.3998779 0.8998779
vt 0.3001221 0.8998779
vt 0.2001221 0.8001221
vt 0.2998779 0.8001221
vt 0.2998779 0.8998779
vt 0.2001221 0.8998779
vt 0.3001221 0.2001221
vt 0.3998779 0.2001221
vt 0.3998779 0.2998779
vt 0.3001221 0.2998779
vt 0.0001220703 0.2001221
vt 0.09987793 0.2001221
vt 0.09987793 0.2998779
vt 0.0001220703 0.2998779
vt 0.3001221 0.3001221
vt 0.3998779 0.3001221
vt 0.3998779 0.3998779
vt 0.3001221 0.3998779
vt 0.0001220703 0.3001221
vt 0.09987793 0.3001221
vt 0.09987793 0.3998779
vt 0.0001220703 0.3998779
vt 0.3001221 0.4001221
vt 0.3998779 0.4001221
vt 0.3998779 0.4998779
vt 0.3001221 0.4998779
vt 0.0001220703 0.4001221
vt 0.09987793 0.4001221
vt 0.09987793 0.4998779
vt 0.0001220703 0.4998779
vt 0.6001221 0.0001220703
vt 0.6998779 0.0001220703
vt 0.6998779 0.09987793
vt 0.6001221 0.09987793
vt 0.4001221 0.0001220703
vt 0.4998779 0.0001220703
vt 0.4998779 0.09987793
vt 0.4001221 0.09987793
vt 0.6001221 0.2001221
vt 0.6998779 0.2001221
vt 0.6998779 0.2998779
vt 0.6001221 0.2998779
vt 0.5001221 0.0001220703
vt 0.599878 0.0001220703
vt 0.599878 0.09987793
vt 0.5001221 0.09987793
vt 0.3001221 0.0001220703
vt 0.3998779 0.0001220703
vt 0.3998779 0.09987793
vt 0.3001221 0.09987793
vt 0.2001221 0.0001220703
vt 0.2998779 0.0001220703
vt 0.2998779 0.09987793
vt 0.2001221 0.09987793
vt 0.4001221 0.1001221
vt 0.4998779 0.1001221
vt 0.4998779 0.1998779
vt 0.4001221 0.1998779
vt 0.6001221 0.3001221
vt 0.6998779 0.3001221
vt 0.6998779 0.3998779
vt 0.6001221 0.3998779
vt 0.3001221 0.1001221
vt 0.3998779 0.1001221
vt 0.3998779 0.1998779
vt 0.3001221 0.1998779
vt 0.2001221 0.1001221
vt 0.2998779 0.1001221
vt 0.2998779 0.1998779
vt 0.2001221 0.1998779
vt 0.1001221 0.3001221
vt 0.1998779 0.3001221
vt 0.1998779 0.3998779
vt 0.1001221 0.3998779
vt 0.0001220703 0.8001221
vt 0.09987793 0.8001221
vt 0.09987793 0.8998779
vt 0.0001220703 0.8998779
vt 0.1001221 0.4001221
vt 0.1998779 0.4001221
vt 0.1998779 0.4998779
vt 0.1001221 0.4998779
vt 0.0001220703 0.900122
vt 0.09987793 0.900122
vt 0.09987793 0.9998779
vt 0.0001220703 0.9998779
vt 0.0001220703 0.6001221
vt 0.09987793 0.6001221
vt 0.09987793 0.6998779
vt 0.0001220703 0.6998779
vt 0.0001220703 0.5001221
vt 0.09987793 0.5001221
vt 0.09987793 0.599878
vt 0.0001220703 0.599878

# Normal
vn 0 0 -1

# Groups (Count = 10)
g mesh_[00]_[01]
f  1/1/1  2/2/1  3/3/1  4/4/1 
f  5/1/1  1/2/1  4/3/1  6/4/1 
f  7/1/1  5/2/1  6/3/1  8/4/1 
f  9/1/1  7/2/1  8/3/1  10/4/1 
f  11/1/1  9/2/1  10/3/1  12/4/1 
f  13/1/1  11/2/1  12/3/1  14/4/1 
f  15/1/1  13/2/1  14/3/1  16/4/1 
f  17/1/1  15/2/1  16/3/1  18/4/1 
f  19/1/1  17/2/1  18/3/1  20/4/1 
f  21/1/1  19/2/1  20/3/1  22/4/1 
f  23/1/1  21/2/1  22/3/1  24/4/1 
f  25/1/1  23/2/1  24/3/1  26/4/1 
f  27/1/1  25/2/1  26/3/1  28/4/1 
f  4/1/1  3/2/1  53/3/1  54/4/1 
f  6/1/1  4/2/1  54/3/1  55/4/1 
f  8/1/1  6/2/1  55/3/1  56/4/1 
f  10/1/1  8/2/1  56/3/1  57/4/1 
f  12/1/1  10/2/1  57/3/1  58/4/1 
f  14/1/1  12/2/1  58/3/1  59/4/1 
f  16/1/1  14/2/1  59/3/1  60/4/1 
f  18/1/1  16/2/1  60/3/1  61/4/1 
f  20/1/1  18/2/1  61/3/1  62/4/1 
f  22/1/1  20/2/1  62/3/1  63/4/1 
f  24/1/1  22/2/1  63/3/1  64/4/1 
f  26/1/1  24/2/1  64/3/1  65/4/1 
f  28/1/1  26/2/1  65/3/1  66/4/1 
f  54/1/1  53/2/1  79/3/1  80/4/1 
f  55/1/1  54/2/1  80/3/1  81/4/1 
f  56/1/1  55/2/1  81/3/1  82/4/1 
f  57/1/1  56/2/1  82/3/1  83/4/1 
f  58/1/1  57/2/1  83/3/1  84/4/1 
f  59/1/1  58/2/1  84/3/1  85/4/1 
f  60/1/1  59/2/1  85/3/1  86/4/1 
f  61/1/1  60/2/1  86/3/1  87/4/1 
f  62/1/1  61/2/1  87/3/1  88/4/1 
f  63/1/1  62/2/1  88/3/1  89/4/1 
f  64/1/1  63/2/1  89/3/1  90/4/1 
f  65/1/1  64/2/1  90/3/1  91/4/1 
f  66/1/1  65/2/1  91/3/1  92/4/1 
f  80/1/1  79/2/1  105/3/1  106/4/1 
f  81/1/1  80/2/1  106/3/1  107/4/1 
f  82/1/1  81/2/1  107/3/1  108/4/1 
f  83/1/1  82/2/1  108/3/1  109/4/1 
f  84/1/1  83/2/1  109/3/1  110/4/1 
f  85/1/1  84/2/1  110/3/1  111/4/1 
f  86/1/1  85/2/1  111/3/1  112/4/1 
f  87/1/1  86/2/1  112/3/1  113/4/1 
f  88/1/1  87/2/1  113/3/1  114/4/1 
f  89/1/1  88/2/1  114/3/1  115/4/1 
f  90/1/1  89/2/1  115/3/1  116/4/1 
f  91/1/1  90/2/1  116/3/1  117/4/1 
f  92/1/1  91/2/1  117/3/1  118/4/1 
f  106/1/1  105/2/1  131/3/1  132/4/1 
f  107/1/1  106/2/1  132/3/1  133/4/1 
f  108/1/1  107/2/1  133/3/1  134/4/1 
f  109/1/1  108/2/1  134/3/1  135/4/1 
f  110/1/1  109/2/1  135/3/1  136/4/1 
f  111/1/1  110/2/1  136/3/1  137/4/1 
f  112/1/1  111/2/1  137/3/1  138/4/1 
f  113/1/1  112/2/1  138/3/1  139/4/1 
f  114/1/1  113/2/1  139/3/1  140/4/1 
f  115/1/1  114/2/1  140/3/1  141/4/1 
f  116/1/1  115/2/1  141/3/1  142/4/1 
f  117/1/1  116/2/1  142/3/1  143/4/1 
f  118/1/1  117/2/1  143/3/1  144/4/1 
f  132/1/1  131/2/1  157/3/1  158/4/1 
f  133/1/1  132/2/1  158/3/1  159/4/1 
f  134/1/1  133/2/1  159/3/1  160/4/1 
f  135/1/1  134/2/1  160/3/1  161/4/1 
f  136/1/1  135/2/1  161/3/1  162/4/1 
f  137/1/1  136/2/1  162/3/1  163/4/1 
f  138/1/1  137/2/1  163/3/1  164/4/1 
f  139/1/1  138/2/1  164/3/1  165/4/1 
f  140/1/1  139/2/1  165/3/1  166/4/1 
f  141/1/1  140/2/1  166/3/1  167/4/1 
f  142/1/1  141/2/1  167/3/1  168/4/1 
f  143/1/1  142/2/1  168/3/1  169/4/1 
f  144/1/1  143/2/1  169/3/1  170/4/1 
f  158/1/1  157/2/1  183/3/1  184/4/1 
f  159/1/1  158/2/1  184/3/1  185/4/1 
f  160/1/1  159/2/1  185/3/1  186/4/1 
f  161/1/1  160/2/1  186/3/1  187/4/1 
f  162/1/1  161/2/1  187/3/1  188/4/1 
f  163/1/1  162/2/1  188/3/1  189/4/1 
f  164/1/1  163/2/1  189/3/1  190/4/1 
f  165/1/1  164/2/1  190/3/1  191/4/1 
f  166/1/1  165/2/1  191/3/1  192/4/1 
f  167/1/1  166/2/1  192/3/1  193/4/1 
f  168/1/1  167/2/1  193/3/1  194/4/1 
f  169/1/1  168/2/1  194/3/1  195/4/1 
f  170/1/1  169/2/1  195/3/1  196/4/1 
f  184/1/1  183/2/1  209/3/1  210/4/1 
f  185/1/1  184/2/1  210/3/1  211/4/1 
f  186/1/1  185/2/1  211/3/1  212/4/1 
f  187/1/1  186/2/1  212/3/1  213/4/1 
f  188/1/1  187/2/1  213/3/1  214/4/1 
f  189/1/1  188/2/1  214/3/1  215/4/1 
f  190/1/1  189/2/1  215/3/1  216/4/1 
f  191/1/1  190/2/1  216/3/1  217/4/1 
f  192/1/1  191/2/1  217/3/1  218/4/1 
f  193/1/1  192/2/1  218/3/1  219/4/1 
f  194/1/1  193/2/1  219/3/1  220/4/1 
f  195/1/1  194/2/1  220/3/1  221/4/1 
f  196/1/1  195/2/1  221/3/1  222/4/1 
g mesh_[00]_[00]
f  29/5/1  27/6/1  28/7/1  30/8/1 
f  31/5/1  29/6/1  30/7/1  32/8/1 
f  33/5/1  31/6/1  32/7/1  34/8/1 
f  35/5/1  33/6/1  34/7/1  36/8/1 
f  37/5/1  35/6/1  36/7/1  38/8/1 
f  39/5/1  37/6/1  38/7/1  40/8/1 
f  41/5/1  39/6/1  40/7/1  42/8/1 
f  43/5/1  41/6/1  42/7/1  44/8/1 
f  45/5/1  43/6/1  44/7/1  46/8/1 
f  47/5/1  45/6/1  46/7/1  48/8/1 
f  49/5/1  47/6/1  48/7/1  50/8/1 
f  51/5/1  49/6/1  50/7/1  52/8/1 
f  30/5/1  28/6/1  66/7/1  67/8/1 
f  32/5/1  30/6/1  67/7/1  68/8/1 
f  34/5/1  32/6/1  68/7/1  69/8/1 
f  36/5/1  34/6/1  69/7/1  70/8/1 
f  38/5/1  36/6/1  70/7/1  71/8/1 
f  40/5/1  38/6/1  71/7/1  72/8/1 
f  42/5/1  40/6/1  72/7/1  73/8/1 
f  44/5/1  42/6/1  73/7/1  74/8/1 
f  46/5/1  44/6/1  74/7/1  75/8/1 
f  48/5/1  46/6/1  75/7/1  76/8/1 
f  50/5/1  48/6/1  76/7/1  77/8/1 
f  52/5/1  50/6/1  77/7/1  78/8/1 
f  67/5/1  66/6/1  92/7/1  93/8/1 
f  68/5/1  67/6/1  93/7/1  94/8/1 
f  69/5/1  68/6/1  94/7/1  95/8/1 
f  70/5/1  69/6/1  95/7/1  96/8/1 
f  71/5/1  70/6/1  96/7/1  97/8/1 
f  72/5/1  71/6/1  97/7/1  98/8/1 
f  73/5/1  72/6/1  98/7/1  99/8/1 
f  74/5/1  73/6/1  99/7/1  100/8/1 
f  75/5/1  74/6/1  100/7/1  101/8/1 
f  76/5/1  75/6/1  101/7/1  102/8/1 
f  77/5/1  76/6/1  102/7/1  103/8/1 
f  78/5/1  77/6/1  103/7/1  104/8/1 
f  93/5/1  92/6/1  118/7/1  119/8/1 
f  94/5/1  93/6/1  119/7/1  120/8/1 
f  95/5/1  94/6/1  120/7/1  121/8/1 
f  96/5/1  95/6/1  121/7/1  122/8/1 
f  97/5/1  96/6/1  122/7/1  123/8/1 
f  98/5/1  97/6/1  123/7/1  124/8/1 
f  99/5/1  98/6/1  124/7/1  125/8/1 
f  100/5/1  99/6/1  125/7/1  126/8/1 
f  101/5/1  100/6/1  126/7/1  127/8/1 
f  102/5/1  101/6/1  127/7/1  128/8/1 
f  103/5/1  102/6/1  128/7/1  129/8/1 
f  104/5/1  103/6/1  129/7/1  130/8/1 
f  119/5/1  118/6/1  144/7/1  145/8/1 
f  120/5/1  119/6/1  145/7/1  146/8/1 
f  121/5/1  120/6/1  146/7/1  147/8/1 
f  122/5/1  121/6/1  147/7/1  148/8/1 
f  123/5/1  122/6/1  148/7/1  149/8/1 
f  124/5/1  123/6/1  149/7/1  150/8/1 
f  125/5/1  124/6/1  150/7/1  151/8/1 
f  126/5/1  125/6/1  151/7/1  152/8/1 
f  127/5/1  126/6/1  152/7/1  153/8/1 
f  128/5/1  127/6/1  153/7/1  154/8/1 
f  129/5/1  128/6/1  154/7/1  155/8/1 
f  130/5/1  129/6/1  155/7/1  156/8/1 
f  145/5/1  144/6/1  170/7/1  171/8/1 
f  146/5/1  145/6/1  171/7/1  172/8/1 
f  147/5/1  146/6/1  172/7/1  173/8/1 
f  148/5/1  147/6/1  173/7/1  174/8/1 
f  149/5/1  148/6/1  174/7/1  175/8/1 
f  150/5/1  149/6/1  175/7/1  176/8/1 
f  151/5/1  150/6/1  176/7/1  177/8/1 
f  152/5/1  151/6/1  177/7/1  178/8/1 
f  153/5/1  152/6/1  178/7/1  179/8/1 
f  154/5/1  153/6/1  179/7/1  180/8/1 
f  155/5/1  154/6/1  180/7/1  181/8/1 
f  156/5/1  155/6/1  181/7/1  182/8/1 
f  171/5/1  170/6/1  196/7/1  197/8/1 
f  172/5/1  171/6/1  197/7/1  198/8/1 
f  173/5/1  172/6/1  198/7/1  199/8/1 
f  174/5/1  173/6/1  199/7/1  200/8/1 
f  175/5/1  174/6/1  200/7/1  201/8/1 
f  176/5/1  175/6/1  201/7/1  202/8/1 
f  177/5/1  176/6/1  202/7/1  203/8/1 
f  178/5/1  177/6/1  203/7/1  204/8/1 
f  179/5/1  178/6/1  204/7/1  205/8/1 
f  180/5/1  179/6/1  205/7/1  206/8/1 
f  181/5/1  180/6/1  206/7/1  207/8/1 
f  182/5/1  181/6/1  207/7/1  208/8/1 
f  197/5/1  196/6/1  222/7/1  223/8/1 
f  198/5/1  197/6/1  223/7/1  224/8/1 
f  199/5/1  198/6/1  224/7/1  225/8/1 
f  200/5/1  199/6/1  225/7/1  226/8/1 
f  201/5/1  200/6/1  226/7/1  227/8/1 
f  202/5/1  201/6/1  227/7/1  228/8/1 
f  203/5/1  202/6/1  228/7/1  229/8/1 
f  204/5/1  203/6/1  229/7/1  230/8/1 
f  205/5/1  204/6/1  230/7/1  231/8/1 
f  206/5/1  205/6/1  231/7/1  232/8/1 
f  207/5/1  206/6/1  232/7/1  233/8/1 
f  208/5/1  207/6/1  233/7/1  234/8/1 
g mesh_[01]_[02]
f  1/9/1  2/10/1  3/11/1  4/12/1 
f  5/9/1  1/10/1  4/11/1  6/12/1 
f  7/9/1  5/10/1  6/11/1  8/12/1 
f  9/9/1  7/10/1  8/11/1  10/12/1 
f  11/9/1  9/10/1  10/11/1  12/12/1 
f  13/9/1  11/10/1  12/11/1  14/12/1 
f  15/9/1  13/10/1  14/11/1  16/12/1 
f  17/9/1  15/10/1  16/11/1  18/12/1 
f  19/9/1  17/10/1  18/11/1  20/12/1 
f  21/9/1  19/10/1  20/11/1  22/12/1 
f  23/9/1  21/10/1  22/11/1  24/12/1 
f  25/9/1  23/10/1  24/11/1  26/12/1 
f  27/9/1  25/10/1  26/11/1  28/12/1 
f  29/13/1  27/14/1  28/15/1  30/16/1 
f  31/13/1  29/14/1  30/15/1  32/16/1 
f  33/13/1  31/14/1  32/15/1  34/16/1 
f  35/13/1  33/14/1  34/15/1  36/16/1 
f  37/13/1  35/14/1  36/15/1  38/16/1 
f  39/13/1  37/14/1  38/15/1  40/16/1 
f  41/13/1  39/14/1  40/15/1  42/16/1 
f  43/13/1  41/14/1  42/15/1  44/16/1 
f  45/13/1  43/14/1  44/15/1  46/16/1 
f  47/13/1  45/14/1  46/15/1  48/16/1 
f  49/13/1  47/14/1  48/15/1  50/16/1 
f  51/13/1  49/14/1  50/15/1  52/16/1 
g mesh_[02]_[02]
f  5/17/1  1/18/1  4/19/1  6/20/1 
f  6/25/1  4/26/1  54/27/1  55/28/1 
f  55/33/1  54/34/1  80/35/1  81/36/1 
g mesh_[02]_[01]
f  27/21/1  25/22/1  26/23/1  28/24/1 
f  28/29/1  26/30/1  65/31/1  66/32/1 
f  66/37/1  65/38/1  91/39/1  92/40/1 
g mesh_[03]_[01]
f  17/41/1  15/42/1  16/43/1  18/44/1 
f  19/45/1  17/46/1  18/47/1  20/48/1 
f  41/53/1  39/54/1  40/55/1  42/56/1 
f  45/57/1  43/58/1  44/59/1  46/60/1 
f  47/61/1  45/62/1  46/63/1  48/64/1 
f  51/45/1  49/46/1  50/47/1  52/48/1 
f  20/65/1  18/66/1  61/67/1  62/68/1 
f  46/73/1  44/74/1  74/75/1  75/76/1 
f  48/77/1  46/78/1  75/79/1  76/80/1 
f  52/65/1  50/66/1  77/67/1  78/68/1 
g mesh_[03]_[02]
f  35/49/1  33/50/1  34/51/1  36/52/1 
f  36/69/1  34/70/1  69/71/1  70/72/1 
g mesh_[04]_[00]
f  1/81/1  2/82/1  3/83/1  4/84/1 
f  51/85/1  49/86/1  50/87/1  52/88/1 
f  4/89/1  3/90/1  53/91/1  54/92/1 
f  52/93/1  50/94/1  77/95/1  78/96/1 
f  54/89/1  53/90/1  79/91/1  80/92/1 
f  78/93/1  77/94/1  103/95/1  104/96/1 
f  80/89/1  79/90/1  105/91/1  106/92/1 
f  104/93/1  103/94/1  129/95/1  130/96/1 
f  106/89/1  105/90/1  131/91/1  132/92/1 
f  130/93/1  129/94/1  155/95/1  156/96/1 
f  132/89/1  131/90/1  157/91/1  158/92/1 
f  156/93/1  155/94/1  181/95/1  182/96/1 
f  158/89/1  157/90/1  183/91/1  184/92/1 
f  182/93/1  181/94/1  207/95/1  208/96/1 
f  184/89/1  183/90/1  209/91/1  210/92/1 
f  208/93/1  207/94/1  233/95/1  234/96/1 
g mesh_[04]_[01]
f  66/85/1  65/86/1  91/87/1  92/88/1 
f  92/93/1  91/94/1  117/95/1  118/96/1 
f  118/85/1  117/86/1  143/87/1  144/88/1 
f  144/93/1  143/94/1  169/95/1  170/96/1 
f  170/85/1  169/86/1  195/87/1  196/88/1 
f  196/93/1  195/94/1  221/95/1  222/96/1 
g mesh_[05]_[00]
f  1/97/1  2/98/1  3/99/1  4/100/1 
f  5/97/1  1/98/1  4/99/1  6/100/1 
f  7/97/1  5/98/1  6/99/1  8/100/1 
f  9/97/1  7/98/1  8/99/1  10/100/1 
f  11/97/1  9/98/1  10/99/1  12/100/1 
f  13/97/1  11/98/1  12/99/1  14/100/1 
f  15/97/1  13/98/1  14/99/1  16/100/1 
f  17/97/1  15/98/1  16/99/1  18/100/1 
f  19/97/1  17/98/1  18/99/1  20/100/1 
f  21/97/1  19/98/1  20/99/1  22/100/1 
f  23/97/1  21/98/1  22/99/1  24/100/1 
f  25/97/1  23/98/1  24/99/1  26/100/1 
f  27/97/1  25/98/1  26/99/1  28/100/1 
f  29/97/1  27/98/1  28/99/1  30/100/1 
f  31/97/1  29/98/1  30/99/1  32/100/1 
f  33/97/1  31/98/1  32/99/1  34/100/1 
f  35/97/1  33/98/1  34/99/1  36/100/1 
f  37/97/1  35/98/1  36/99/1  38/100/1 
f  39/97/1  37/98/1  38/99/1  40/100/1 
f  41/97/1  39/98/1  40/99/1  42/100/1 
f  43/97/1  41/98/1  42/99/1  44/100/1 
f  45/97/1  43/98/1  44/99/1  46/100/1 
f  47/97/1  45/98/1  46/99/1  48/100/1 
f  49/97/1  47/98/1  48/99/1  50/100/1 
f  51/97/1  49/98/1  50/99/1  52/100/1 
f  184/101/1  183/102/1  209/103/1  210/104/1 
f  185/101/1  184/102/1  210/103/1  211/104/1 
f  186/101/1  185/102/1  211/103/1  212/104/1 
f  187/101/1  186/102/1  212/103/1  213/104/1 
f  188/101/1  187/102/1  213/103/1  214/104/1 
f  189/101/1  188/102/1  214/103/1  215/104/1 
f  190/101/1  189/102/1  215/103/1  216/104/1 
f  191/101/1  190/102/1  216/103/1  217/104/1 
f  192/101/1  191/102/1  217/103/1  218/104/1 
f  193/101/1  192/102/1  218/103/1  219/104/1 
f  194/101/1  193/102/1  219/103/1  220/104/1 
f  195/101/1  194/102/1  220/103/1  221/104/1 
f  196/101/1  195/102/1  221/103/1  222/104/1 
f  197/101/1  196/102/1  222/103/1  223/104/1 
f  198/101/1  197/102/1  223/103/1  224/104/1 
f  199/101/1  198/102/1  224/103/1  225/104/1 
f  200/101/1  199/102/1  225/103/1  226/104/1 
f  201/101/1  200/102/1  226/103/1  227/104/1 
f  202/101/1  201/102/1  227/103/1  228/104/1 
f  203/101/1  202/102/1  228/103/1  229/104/1 
f  204/101/1  203/102/1  229/103/1  230/104/1 
f  205/101/1  204/102/1  230/103/1  231/104/1 
f  206/101/1  205/102/1  231/103/1  232/104/1 
f  207/101/1  206/102/1  232/103/1  233/104/1 
f  208/101/1  207/102/1  233/103/1  234/104/1 
